<svg xmlns="http://www.w3.org/2000/svg" style="display: none;">
    <!-- 机器人图标 -->
    <symbol id="icon-robot" viewBox="0 0 24 24">
        <rect x="3" y="11" width="18" height="10" rx="2" />
        <circle cx="12" cy="5" r="2" />
        <path d="M12 7v4" />
        <path d="M8 15v2" />
        <path d="M16 15v2" />
    </symbol>
    
    <!-- 区块链图标 -->
    <symbol id="icon-blockchain" viewBox="0 0 24 24">
        <path d="M13 10V3L4 14h7v7l9-11h-7z" />
    </symbol>
    
    <!-- 云服务图标 -->
    <symbol id="icon-cloud" viewBox="0 0 24 24">
        <path d="M3 15a4 4 0 004 4h9a5 5 0 10-.1-9.999 5.002 5.002 0 10-9.78 2.096A4.001 4.001 0 003 15z" />
    </symbol>
    
    <!-- 代币图标 -->
    <symbol id="icon-token" viewBox="0 0 24 24">
        <circle cx="12" cy="12" r="10" />
        <path d="M12 6v12" />
        <path d="M8 10h8" />
    </symbol>
    
    <!-- 社交媒体图标 -->
    <symbol id="icon-twitter" viewBox="0 0 24 24">
        <path d="M23 3a10.9 10.9 0 0 1-3.14 1.53 4.48 4.48 0 0 0-7.86 3v1A10.66 10.66 0 0 1 3 4s-4 9 5 13a11.64 11.64 0 0 1-7 2c9 5 20 0 20-11.5a4.5 4.5 0 0 0-.08-.83A7.72 7.72 0 0 0 23 3z" />
    </symbol>
    
    <symbol id="icon-linkedin" viewBox="0 0 24 24">
        <path d="M16 8a6 6 0 0 1 6 6v7h-4v-7a2 2 0 0 0-2-2 2 2 0 0 0-2 2v7h-4v-7a6 6 0 0 1 6-6z" />
        <rect x="2" y="9" width="4" height="12" />
        <circle cx="4" cy="4" r="2" />
    </symbol>
    
    <symbol id="icon-github" viewBox="0 0 24 24">
        <path d="M9 19c-5 1.5-5-2.5-7-3m14 6v-3.87a3.37 3.37 0 0 0-.94-2.61c3.14-.35 6.44-1.54 6.44-7A5.44 5.44 0 0 0 20 4.77 5.07 5.07 0 0 0 19.91 1S18.73.65 16 2.48a13.38 13.38 0 0 0-7 0C6.27.65 5.09 1 5.09 1A5.07 5.07 0 0 0 5 4.77a5.44 5.44 0 0 0-1.5 3.78c0 5.42 3.3 6.61 6.44 7A3.37 3.37 0 0 0 9 18.13V22" />
    </symbol>
</svg>